<svg width="18" height="18" viewBox="0 0 18 18" fill="none" xmlns="http://www.w3.org/2000/svg">
<circle cx="9" cy="9" r="9" fill="white"/>
<circle cx="9" cy="9" r="7.5" fill="white" stroke="black"/>
<path d="M5.69661 8.28255C5.30037 7.89782 4.66728 7.90715 4.28255 8.30339C3.89782 8.69963 3.90715 9.33272 4.30339 9.71745L5.69661 8.28255ZM4.30339 9.71745L7.01054 12.346L8.40376 10.9111L5.69661 8.28255L4.30339 9.71745Z" fill="black"/>
<path d="M13.7999 6.60019C14.1313 6.15844 14.0419 5.53161 13.6002 5.20014C13.1584 4.86867 12.5316 4.95806 12.2001 5.39981L13.7999 6.60019ZM12.2001 5.39981L6.94758 12.3998L8.5473 13.6002L13.7999 6.60019L12.2001 5.39981Z" fill="black"/>
</svg>
