<svg width="38" height="38" viewBox="0 0 38 38" fill="none" xmlns="http://www.w3.org/2000/svg">
<path d="M2.47 0.633301H0.633308V27.2333L19 37.3667L2.47 27.2333V0.633301Z" fill="white" fill-opacity="0.05"/>
<path d="M19 38C18.8733 38 18.81 38 18.6833 37.9367L0.316691 27.8033C0.126691 27.6767 0 27.4867 0 27.2333V0.633309C0 0.253309 0.253309 0 0.633309 0H37.3666C37.7467 0 38 0.253309 38 0.633309V9.5C38 9.88 37.7467 10.1333 37.3667 10.1333C36.9867 10.1333 36.7334 9.88 36.7334 9.5V1.26669H1.26669V26.8534L19 36.6067L36.7333 26.8534V14.5667C36.7333 14.1867 36.9866 13.9334 37.3666 13.9334C37.7466 13.9334 37.9999 14.1867 37.9999 14.5667V27.2334C37.9999 27.4867 37.8732 27.6767 37.6832 27.8034L19.3167 37.9367C19.19 38 19.1267 38 19 38Z" fill="#333333"/>
<path d="M38 12.0333C38 11.6533 37.7467 11.4 37.3667 11.4C36.9867 11.4 36.7334 11.6533 36.7334 12.0333C36.7334 12.4133 36.9867 12.6666 37.3667 12.6666C37.7467 12.6667 38 12.4133 38 12.0333Z" fill="#333333"/>
<path d="M6.90331 26.9799C6.77662 26.9799 6.71331 26.9799 6.58662 26.9166L4.11662 25.5233C3.92662 25.46 3.79993 25.2066 3.79993 25.0166V22.1666C3.79993 21.7866 4.05324 21.5333 4.43324 21.5333C4.81324 21.5333 5.06654 21.7866 5.06654 22.1666V24.6366L7.22 25.8399C7.53669 26.0299 7.66331 26.4099 7.47331 26.7266C7.34669 26.8533 7.15669 26.9799 6.90331 26.9799Z" fill="#333333"/>
<path d="M4.43331 18.5567C4.05331 18.5567 3.8 18.3034 3.8 17.9234V11.5267C3.8 11.1467 4.05331 10.8934 4.43331 10.8934C4.81331 10.8934 5.06662 11.1467 5.06662 11.5267V17.9234C5.06669 18.24 4.81331 18.5567 4.43331 18.5567Z" fill="#333333"/>
<path d="M4.43331 7.91667C4.05331 7.91667 3.8 7.66336 3.8 7.28336V4.43336C3.8 4.05336 4.05331 3.80005 4.43331 3.80005H7.28331C7.66331 3.80005 7.91662 4.05336 7.91662 4.43336C7.91662 4.81336 7.66331 5.06667 7.28331 5.06667H5.06669V7.28336C5.06669 7.66328 4.81331 7.91667 4.43331 7.91667Z" fill="#333333"/>
<path d="M26.79 5.06667H20.9633C20.5833 5.06667 20.33 4.81336 20.33 4.43336C20.33 4.05336 20.5833 3.80005 20.9633 3.80005H26.79C27.17 3.80005 27.4233 4.05336 27.4233 4.43336C27.4233 4.81336 27.17 5.06667 26.79 5.06667ZM17.0367 5.06667H11.21C10.83 5.06667 10.5767 4.81336 10.5767 4.43336C10.5767 4.05336 10.83 3.80005 11.21 3.80005H17.0367C17.4167 3.80005 17.67 4.05336 17.67 4.43336C17.67 4.81336 17.4167 5.06667 17.0367 5.06667Z" fill="#333333"/>
<path d="M33.5667 7.91667C33.1867 7.91667 32.9334 7.66336 32.9334 7.28336V5.06667H30.7167C30.3367 5.06667 30.0834 4.81336 30.0834 4.43336C30.0834 4.05336 30.3367 3.80005 30.7167 3.80005H33.5667C33.9467 3.80005 34.2 4.05336 34.2 4.43336V7.28336C34.2 7.66328 33.9467 7.91667 33.5667 7.91667Z" fill="#333333"/>
<path d="M33.5667 18.5567C33.1867 18.5567 32.9334 18.3034 32.9334 17.9234V11.5267C32.9334 11.1467 33.1867 10.8934 33.5667 10.8934C33.9467 10.8934 34.2 11.1467 34.2 11.5267V17.9234C34.2 18.24 33.9467 18.5567 33.5667 18.5567Z" fill="#333333"/>
<path d="M31.0967 26.98C30.8434 26.98 30.6534 26.8533 30.5267 26.6633C30.3367 26.3466 30.4634 25.9666 30.78 25.7766L32.9333 24.5733V22.1666C32.9333 21.7866 33.1866 21.5333 33.5666 21.5333C33.9466 21.5333 34.1999 21.7866 34.1999 22.1666V25.0166C34.1999 25.2699 34.0732 25.4599 33.8832 25.5866L31.4132 26.9799C31.2867 26.98 31.16 26.98 31.0967 26.98Z" fill="#333333"/>
<path d="M24.2567 30.78C24.0034 30.78 23.8134 30.6534 23.6867 30.4634C23.4967 30.1467 23.6234 29.7667 23.94 29.5767L28.0567 27.2967C28.3734 27.1067 28.7534 27.2334 28.9434 27.55C29.1334 27.8667 29.0067 28.2467 28.6901 28.4367L24.5734 30.7167C24.4467 30.7167 24.32 30.78 24.2567 30.78Z" fill="#333333"/>
<path d="M19 33.63C18.8733 33.63 18.81 33.63 18.6833 33.5667L16.2133 32.1734C15.8966 31.9834 15.77 31.6034 15.96 31.2867C16.15 30.97 16.53 30.8434 16.8467 31.0334L19 32.3L21.2167 31.0967C21.5334 30.9067 21.9134 31.0334 22.1034 31.35C22.2934 31.6667 22.1667 32.0467 21.8501 32.2367L19.3168 33.5667C19.19 33.63 19.1267 33.63 19 33.63Z" fill="#333333"/>
<path d="M13.7433 30.78C13.6166 30.78 13.5533 30.78 13.4266 30.7167L9.30993 28.4367C8.99324 28.2467 8.86662 27.8667 9.05662 27.55C9.24662 27.2333 9.62662 27.1067 9.94331 27.2967L14.06 29.5767C14.3767 29.7667 14.5033 30.1467 14.3133 30.4634C14.1867 30.6533 13.9967 30.78 13.7433 30.78Z" fill="#333333"/>
</svg>
