<svg width="19" height="21" viewBox="0 0 19 21" fill="none" xmlns="http://www.w3.org/2000/svg">
<path d="M6.81628 2.93878C7.23961 1.80925 8.3818 1 9.72442 1C11.0671 1 12.2093 1.80925 12.6326 2.93878" stroke="white" stroke-width="1.5" stroke-linecap="round"/>
<path d="M18.0612 4.87756H1" stroke="white" stroke-width="1.5" stroke-linecap="round"/>
<path d="M16.0535 14.4403C15.8777 17.0757 15.7898 18.3934 14.9308 19.1967C14.0719 20 12.7507 20 10.1085 20H9.34045C6.69819 20 5.37706 20 4.51808 19.1967C3.6591 18.3934 3.57121 17.0757 3.39546 14.4403L2.93872 7.59186M16.5101 7.59186L16.3115 10.5698" stroke="white" stroke-width="1.5" stroke-linecap="round"/>
<path d="M7.2041 9.9184L7.59186 14.9592" stroke="white" stroke-width="1.5" stroke-linecap="round"/>
<path d="M12.2449 9.9184L11.4694 14.9592" stroke="white" stroke-width="1.5" stroke-linecap="round"/>
</svg>
